<?xml version="1.0" encoding="UTF-8" standalone="no"?>
<!DOCTYPE svg PUBLIC "-//W3C//DTD SVG 1.1//EN"
 "http://www.w3.org/Graphics/SVG/1.1/DTD/svg11.dtd">
<!-- Generated by graphviz version 2.40.1 (20161225.0304)
 -->
<!-- Title: dependencies Pages: 1 -->
<svg width="920pt" height="284pt"
 viewBox="0.00 0.00 920.00 284.00" xmlns="http://www.w3.org/2000/svg" xmlns:xlink="http://www.w3.org/1999/xlink">
<g id="graph0" class="graph" transform="scale(1 1) rotate(0) translate(4 280)">
<title>dependencies</title>
<polygon fill="#ffffff" stroke="transparent" points="-4,4 -4,-280 916,-280 916,4 -4,4"/>
<text text-anchor="start" x="435.0091" y="-42.4" font-family="sans-serif" font-weight="bold" font-size="14.00" fill="#000000">Legend</text>
<polygon fill="#ffffb3" stroke="transparent" points="222,-10 222,-30 242,-30 242,-10 222,-10"/>
<text text-anchor="start" x="245.629" y="-15.4" font-family="sans-serif" font-size="14.00" fill="#000000"> &#160;Declarations</text>
<polygon fill="#8dd3c7" stroke="transparent" points="335,-10 335,-30 355,-30 355,-10 335,-10"/>
<text text-anchor="start" x="358.7251" y="-15.4" font-family="sans-serif" font-size="14.00" fill="#000000"> &#160;Module</text>
<polygon fill="#80b1d3" stroke="transparent" points="421,-10 421,-30 441,-30 441,-10 421,-10"/>
<text text-anchor="start" x="444.7812" y="-15.4" font-family="sans-serif" font-size="14.00" fill="#000000"> &#160;Bootstrap</text>
<polygon fill="#fdb462" stroke="transparent" points="518,-10 518,-30 538,-30 538,-10 518,-10"/>
<text text-anchor="start" x="541.6732" y="-15.4" font-family="sans-serif" font-size="14.00" fill="#000000"> &#160;Providers</text>
<polygon fill="#fb8072" stroke="transparent" points="614,-10 614,-30 634,-30 634,-10 614,-10"/>
<text text-anchor="start" x="637.7258" y="-15.4" font-family="sans-serif" font-size="14.00" fill="#000000"> &#160;Exports</text>
<g id="clust1" class="cluster">
<title>cluster_AppModule</title>
<polygon fill="none" stroke="#000000" stroke-dasharray="1,5" points="8,-70 8,-268 904,-268 904,-70 8,-70"/>
</g>
<g id="clust2" class="cluster">
<title>cluster_AppModule_declarations</title>
<polygon fill="none" stroke="#000000" points="16,-78 16,-130 896,-130 896,-78 16,-78"/>
</g>
<g id="clust11" class="cluster">
<title>cluster_AppModule_bootstrap</title>
<polygon fill="none" stroke="#000000" points="406,-208 406,-260 530,-260 530,-208 406,-208"/>
</g>
<!-- AppComponent -->
<g id="node1" class="node">
<title>AppComponent</title>
<polygon fill="#ffffb3" stroke="#000000" points="887.9399,-122 782.0601,-122 782.0601,-86 887.9399,-86 887.9399,-122"/>
<text text-anchor="middle" x="835" y="-99.8" font-family="Times,serif" font-size="14.00" fill="#000000">AppComponent</text>
</g>
<!-- AppModule -->
<g id="node7" class="node">
<title>AppModule</title>
<polygon fill="#8dd3c7" stroke="#000000" points="509.6571,-187 506.6571,-191 485.6571,-191 482.6571,-187 426.3429,-187 426.3429,-151 509.6571,-151 509.6571,-187"/>
<text text-anchor="middle" x="468" y="-164.8" font-family="Times,serif" font-size="14.00" fill="#000000">AppModule</text>
</g>
<!-- AppComponent&#45;&gt;AppModule -->
<g id="edge1" class="edge">
<title>AppComponent&#45;&gt;AppModule</title>
<path fill="none" stroke="#000000" d="M835,-122.2843C835,-143.3211 835,-175 835,-175 835,-175 519.7423,-175 519.7423,-175"/>
<polygon fill="#000000" stroke="#000000" points="519.7423,-171.5001 509.7423,-175 519.7422,-178.5001 519.7423,-171.5001"/>
</g>
<!-- BoardComponent -->
<g id="node2" class="node">
<title>BoardComponent</title>
<polygon fill="#ffffb3" stroke="#000000" points="764.5451,-122 649.4549,-122 649.4549,-86 764.5451,-86 764.5451,-122"/>
<text text-anchor="middle" x="707" y="-99.8" font-family="Times,serif" font-size="14.00" fill="#000000">BoardComponent</text>
</g>
<!-- BoardComponent&#45;&gt;AppModule -->
<g id="edge2" class="edge">
<title>BoardComponent&#45;&gt;AppModule</title>
<path fill="none" stroke="#000000" d="M707,-122.0225C707,-139.3734 707,-163 707,-163 707,-163 519.9041,-163 519.9041,-163"/>
<polygon fill="#000000" stroke="#000000" points="519.9041,-159.5001 509.9041,-163 519.9041,-166.5001 519.9041,-159.5001"/>
</g>
<!-- BoardStatusBarComponent -->
<g id="node3" class="node">
<title>BoardStatusBarComponent</title>
<polygon fill="#ffffb3" stroke="#000000" points="630.979,-122 461.021,-122 461.021,-86 630.979,-86 630.979,-122"/>
<text text-anchor="middle" x="546" y="-99.8" font-family="Times,serif" font-size="14.00" fill="#000000">BoardStatusBarComponent</text>
</g>
<!-- BoardStatusBarComponent&#45;&gt;AppModule -->
<g id="edge3" class="edge">
<title>BoardStatusBarComponent&#45;&gt;AppModule</title>
<path fill="none" stroke="#000000" d="M485.4194,-122.1061C485.4194,-122.1061 485.4194,-140.991 485.4194,-140.991"/>
<polygon fill="#000000" stroke="#000000" points="481.9194,-140.9909 485.4194,-150.991 488.9194,-140.991 481.9194,-140.9909"/>
</g>
<!-- CellComponent -->
<g id="node4" class="node">
<title>CellComponent</title>
<polygon fill="#ffffb3" stroke="#000000" points="443.1653,-122 338.8347,-122 338.8347,-86 443.1653,-86 443.1653,-122"/>
<text text-anchor="middle" x="391" y="-99.8" font-family="Times,serif" font-size="14.00" fill="#000000">CellComponent</text>
</g>
<!-- CellComponent&#45;&gt;AppModule -->
<g id="edge4" class="edge">
<title>CellComponent&#45;&gt;AppModule</title>
<path fill="none" stroke="#000000" d="M434.7521,-122.1061C434.7521,-122.1061 434.7521,-140.991 434.7521,-140.991"/>
<polygon fill="#000000" stroke="#000000" points="431.2522,-140.9909 434.7521,-150.991 438.2522,-140.991 431.2522,-140.9909"/>
</g>
<!-- NewGameBtnComponent -->
<g id="node5" class="node">
<title>NewGameBtnComponent</title>
<polygon fill="#ffffb3" stroke="#000000" points="320.9143,-122 159.0857,-122 159.0857,-86 320.9143,-86 320.9143,-122"/>
<text text-anchor="middle" x="240" y="-99.8" font-family="Times,serif" font-size="14.00" fill="#000000">NewGameBtnComponent</text>
</g>
<!-- NewGameBtnComponent&#45;&gt;AppModule -->
<g id="edge5" class="edge">
<title>NewGameBtnComponent&#45;&gt;AppModule</title>
<path fill="none" stroke="#000000" d="M240,-122.0225C240,-139.3734 240,-163 240,-163 240,-163 416.1813,-163 416.1813,-163"/>
<polygon fill="#000000" stroke="#000000" points="416.1813,-166.5001 426.1813,-163 416.1813,-159.5001 416.1813,-166.5001"/>
</g>
<!-- PlayerComponent -->
<g id="node6" class="node">
<title>PlayerComponent</title>
<polygon fill="#ffffb3" stroke="#000000" points="141.5954,-122 24.4046,-122 24.4046,-86 141.5954,-86 141.5954,-122"/>
<text text-anchor="middle" x="83" y="-99.8" font-family="Times,serif" font-size="14.00" fill="#000000">PlayerComponent</text>
</g>
<!-- PlayerComponent&#45;&gt;AppModule -->
<g id="edge6" class="edge">
<title>PlayerComponent&#45;&gt;AppModule</title>
<path fill="none" stroke="#000000" d="M83,-122.2843C83,-143.3211 83,-175 83,-175 83,-175 416.0654,-175 416.0654,-175"/>
<polygon fill="#000000" stroke="#000000" points="416.0654,-178.5001 426.0654,-175 416.0653,-171.5001 416.0654,-178.5001"/>
</g>
<!-- AppComponent  -->
<g id="node8" class="node">
<title>AppComponent </title>
<polygon fill="#80b1d3" stroke="#000000" points="522.439,-252 413.561,-252 413.561,-216 522.439,-216 522.439,-252"/>
<text text-anchor="middle" x="468" y="-229.8" font-family="Times,serif" font-size="14.00" fill="#000000">AppComponent </text>
</g>
<!-- AppModule&#45;&gt;AppComponent  -->
<g id="edge7" class="edge">
<title>AppModule&#45;&gt;AppComponent </title>
<path fill="none" stroke="#000000" stroke-dasharray="1,5" d="M468,-187.1061C468,-187.1061 468,-205.991 468,-205.991"/>
<polygon fill="#000000" stroke="#000000" points="464.5001,-205.9909 468,-215.991 471.5001,-205.991 464.5001,-205.9909"/>
</g>
</g>
</svg>
