<?xml version="1.0" encoding="iso-8859-1"?>
<!-- Generator: Adobe Illustrator 19.0.0, SVG Export Plug-In . SVG Version: 6.00 Build 0)  -->
<svg version="1.1" id="Layer_1" xmlns="http://www.w3.org/2000/svg" xmlns:xlink="http://www.w3.org/1999/xlink" x="0px" y="0px"
	 viewBox="0 0 511.999 511.999" style="enable-background:new 0 0 511.999 511.999;" xml:space="preserve">
<path style="fill:#E4EAF6;" d="M406.068,150.068H109.444c-58.325,0-108.359,45.63-109.426,103.946
	C-1.07,313.426,46.766,361.93,105.93,361.93c28.724,0,54.702-11.499,73.772-30.073c3.322-3.235,7.648-5.237,12.286-5.237h128.044
	c4.626,0,8.937,1.995,12.249,5.224c21.57,21.017,51.988,32.982,85.218,29.484c48.802-5.138,88.484-44.561,93.839-93.34
	C518.352,204.114,468.522,150.068,406.068,150.068z"/>
<circle style="fill:#707487;" cx="406.068" cy="255.999" r="88.276"/>
<circle style="fill:#D7DEED;" cx="105.93" cy="255.999" r="57.379"/>
<path style="fill:#707487;" d="M140.689,241.103h-14.897c-2.742,0-4.966-2.223-4.966-4.966v-14.897c0-2.742-2.223-4.966-4.966-4.966
	H95.999c-2.742,0-4.966,2.223-4.966,4.966v14.897c0,2.742-2.223,4.966-4.966,4.966H71.172c-2.742,0-4.966,2.223-4.966,4.966v19.862
	c0,2.742,2.223,4.966,4.966,4.966h14.897c2.742,0,4.966,2.223,4.966,4.966v14.897c0,2.742,2.223,4.966,4.966,4.966h19.862
	c2.742,0,4.966-2.223,4.966-4.966v-14.897c0-2.742,2.223-4.966,4.966-4.966h14.897c2.742,0,4.966-2.223,4.966-4.966v-19.862
	C145.655,243.326,143.431,241.103,140.689,241.103z"/>
<circle style="fill:#5B5D6E;" cx="105.93" cy="255.999" r="8.828"/>
<g>
	<path style="fill:#707487;" d="M211.867,291.31c-3.242,0-6.354-1.784-7.905-4.879c-2.182-4.362-0.414-9.664,3.948-11.844
		l17.655-8.828c4.362-2.177,9.664-0.414,11.844,3.948c2.18,4.362,0.414,9.664-3.948,11.844l-17.655,8.828
		C214.54,291.012,213.194,291.31,211.867,291.31z"/>
	<path style="fill:#707487;" d="M264.833,291.31c-3.242,0-6.354-1.784-7.905-4.879c-2.182-4.362-0.414-9.664,3.948-11.844
		l17.655-8.828c4.353-2.177,9.655-0.414,11.844,3.948c2.182,4.362,0.414,9.664-3.948,11.844l-17.655,8.828
		C267.505,291.012,266.16,291.31,264.833,291.31z"/>
</g>
<g>
	<path style="fill:#D7DEED;" d="M286.896,203.034h-79.448c-7.313,0-13.241-5.929-13.241-13.241l0,0
		c0-7.313,5.929-13.241,13.241-13.241h79.448c7.313,0,13.241,5.929,13.241,13.241l0,0
		C300.137,197.105,294.209,203.034,286.896,203.034z"/>
	<path style="fill:#D7DEED;" d="M357.526,275.861c-5.181,0-10.311-2.268-13.793-6.625c-6.094-7.616-4.862-18.724,2.759-24.814
		l44.138-35.31c7.604-6.099,18.724-4.862,24.81,2.754c6.094,7.616,4.862,18.724-2.759,24.814l-44.138,35.31
		C365.293,274.598,361.396,275.861,357.526,275.861z"/>
	<path style="fill:#D7DEED;" d="M410.491,306.758c-5.181,0-10.311-2.268-13.793-6.625c-6.094-7.616-4.862-18.724,2.759-24.814
		l44.138-35.31c7.595-6.103,18.733-4.853,24.81,2.754c6.094,7.616,4.862,18.724-2.759,24.814l-44.138,35.31
		C418.258,305.494,414.362,306.758,410.491,306.758z"/>
</g>
<circle style="fill:#00DCC8;" cx="357.517" cy="258.206" r="17.655"/>
<circle style="fill:#82B9FF;" cx="401.655" cy="222.896" r="17.655"/>
<circle style="fill:#FF6464;" cx="454.62" cy="253.792" r="17.655"/>
<circle style="fill:#FFCD46;" cx="410.482" cy="289.103" r="17.655"/>
<g>
</g>
<g>
</g>
<g>
</g>
<g>
</g>
<g>
</g>
<g>
</g>
<g>
</g>
<g>
</g>
<g>
</g>
<g>
</g>
<g>
</g>
<g>
</g>
<g>
</g>
<g>
</g>
<g>
</g>
</svg>
